<svg width="34" height="34" viewBox="0 0 34 34" fill="none" xmlns="http://www.w3.org/2000/svg">
<g clip-path="url(#clip0_12_205)">
<path d="M7.58081 18.9847V26.4828C7.58081 26.8118 7.71151 27.1274 7.94414 27.36C8.17678 27.5926 8.49231 27.7233 8.82131 27.7233H10.1996C10.5286 27.7233 10.8442 27.5926 11.0768 27.36C11.3094 27.1274 11.4401 26.8118 11.4401 26.4828V18.5299C11.4474 18.4565 11.4474 18.3827 11.4401 18.3093C10.1881 18.6995 8.89095 18.9265 7.58081 18.9847Z" fill="#FF510B"/>
<path d="M4.56229 11.6795C4.11385 11.3547 3.56686 11.1952 3.01414 11.2278C2.46143 11.2605 1.93703 11.4834 1.52996 11.8587C0.82373 12.375 0.321957 13.1236 0.112748 13.973C-0.096462 14.8224 0.000265551 15.7184 0.385947 16.5037C0.743398 17.4419 1.43003 18.2181 2.31772 18.6873C3.2054 19.1565 4.23349 19.2867 5.21011 19.0536C5.87613 18.9291 6.46744 18.55 6.85858 17.9967C7.24972 17.4435 7.40992 16.7596 7.30517 16.0902C7.2022 15.198 6.90282 14.3397 6.42856 13.5771C5.95429 12.8145 5.31693 12.1664 4.56229 11.6795ZM2.75668 17.6614C2.28672 17.4916 1.87626 17.1888 1.57527 16.7899C1.27427 16.3911 1.09572 15.9133 1.06133 15.4148C1.06133 15.1115 1.06133 14.8083 1.40591 14.7807C1.98481 14.7807 3.63881 16.9447 3.47341 17.3858C3.30801 17.8268 3.05991 17.7717 2.75668 17.6614Z" fill="#FF510B"/>
<path d="M10.9164 6.29021C7.2225 6.02833 4.60367 9.04688 4.02477 9.92901C4.00779 9.95207 3.99708 9.97915 3.99371 10.0076C3.99033 10.036 3.9944 10.0649 4.00552 10.0913C4.01663 10.1177 4.03441 10.1407 4.05712 10.1582C4.07982 10.1757 4.10667 10.1869 4.13504 10.1909C5.42628 10.6859 6.53874 11.5579 7.32779 12.6936C8.11685 13.8292 8.54601 15.176 8.55948 16.5588C8.55309 16.8727 8.52546 17.1858 8.47678 17.496C8.47678 17.496 8.47678 17.6614 8.61461 17.6339C14.0315 17.3031 15.203 13.6781 15.5063 12.2446C15.643 11.5463 15.6292 10.827 15.4658 10.1344C15.3024 9.44194 14.9932 8.79224 14.5588 8.22871C14.1245 7.66518 13.5749 7.20078 12.9468 6.86651C12.3187 6.53223 11.6265 6.33576 10.9164 6.29021ZM13.1631 10.4252L11.4264 11.8035C11.2435 11.8867 11.0376 11.9049 10.8429 11.8551C10.6482 11.8053 10.4763 11.6905 10.3557 11.5297C10.2351 11.369 10.1731 11.1718 10.1798 10.971C10.1865 10.7701 10.2616 10.5776 10.3927 10.4252L12.1431 9.04688C12.3254 8.96994 12.5282 8.9565 12.7191 9.00873C12.9099 9.06096 13.0776 9.17581 13.1953 9.33484C13.313 9.49387 13.3738 9.68784 13.3679 9.88559C13.3621 10.0833 13.29 10.2734 13.1631 10.4252Z" fill="#FF510B"/>
<path d="M21.5985 18.5298V26.4828C21.5985 26.8118 21.7292 27.1273 21.9618 27.3599C22.1945 27.5926 22.51 27.7233 22.839 27.7233H24.2173C24.5463 27.7233 24.8619 27.5926 25.0945 27.3599C25.3271 27.1273 25.4578 26.8118 25.4578 26.4828V18.9846C24.1553 18.9477 22.863 18.7438 21.6123 18.3782C21.6043 18.4283 21.5997 18.479 21.5985 18.5298Z" fill="#FF510B"/>
<path d="M31.5501 11.8587C31.143 11.4834 30.6186 11.2605 30.0659 11.2278C29.5132 11.1952 28.9662 11.3547 28.5177 11.6795C27.7605 12.1649 27.1205 12.8123 26.6438 13.5751C26.1671 14.3378 25.8656 15.1968 25.7611 16.0902C25.6563 16.7596 25.8165 17.4435 26.2076 17.9967C26.5988 18.55 27.1901 18.9291 27.8561 19.0536C28.8327 19.2867 29.8608 19.1565 30.7485 18.6873C31.6362 18.2181 32.3228 17.4419 32.6803 16.5037C33.0674 15.7199 33.1663 14.825 32.9596 13.9757C32.753 13.1264 32.2539 12.3769 31.5501 11.8587ZM32.0187 15.4148C31.9843 15.9133 31.8057 16.3911 31.5048 16.7899C31.2038 17.1888 30.7933 17.4916 30.3233 17.6614C30.0201 17.7717 29.7307 17.7579 29.6066 17.3858C29.4826 17.0136 31.0952 14.7532 31.6741 14.7807C31.9773 14.8083 32.06 15.1115 32.0187 15.4148Z" fill="#FF510B"/>
<path d="M24.6722 17.496C24.6235 17.1858 24.5959 16.8727 24.5895 16.5588C24.6029 15.176 25.0321 13.8292 25.8212 12.6935C26.6102 11.5579 27.7227 10.6859 29.0139 10.1909C29.04 10.1832 29.0637 10.1693 29.0831 10.1503C29.1025 10.1313 29.1169 10.1078 29.1251 10.082C29.1332 10.0561 29.1349 10.0286 29.13 10.0019C29.125 9.97524 29.1136 9.9502 29.0966 9.92899C28.4764 9.10199 25.8575 6.02831 22.205 6.29019C17.9459 6.59342 17.3808 10.8111 17.684 12.2446C17.9873 13.678 19.1589 17.3031 24.5757 17.6339C24.6997 17.6614 24.6722 17.496 24.6722 17.496ZM22.8803 11.5554C22.7447 11.745 22.5395 11.8731 22.3096 11.9118C22.0798 11.9506 21.8439 11.8968 21.6536 11.7622L19.9169 10.3838C19.7939 10.3319 19.6843 10.2528 19.5964 10.1523C19.5084 10.0519 19.4444 9.93278 19.4091 9.80401C19.3739 9.67524 19.3683 9.54014 19.3929 9.40891C19.4175 9.27768 19.4715 9.15373 19.5509 9.04641C19.6303 8.93909 19.733 8.8512 19.8514 8.78935C19.9697 8.72751 20.1005 8.69333 20.234 8.68939C20.3674 8.68545 20.5 8.71186 20.6218 8.76662C20.7435 8.82137 20.8513 8.90305 20.9369 9.0055L22.6874 10.3838C22.8596 10.5201 22.9748 10.7156 23.0105 10.9323C23.0462 11.149 22.9998 11.3711 22.8803 11.5554Z" fill="#FF510B"/>
</g>
<defs>
<clipPath id="clip0_12_205">
<rect width="33.08" height="33.08" fill="white" transform="translate(0 0.459961)"/>
</clipPath>
</defs>
</svg>
