<svg width="87" height="11" viewBox="0 0 87 11" fill="none" xmlns="http://www.w3.org/2000/svg">
<g clip-path="url(#clip0_12_489)">
<path fill-rule="evenodd" clip-rule="evenodd" d="M6.57056 1.72814C6.90662 1.32398 7.14466 0.773484 7.14466 0.216018C7.14466 0.139366 7.13766 0.0627149 7.12365 0C6.57756 0.020905 5.91944 0.362353 5.52736 0.822262C5.21931 1.17068 4.93226 1.72814 4.93226 2.28561C4.93226 2.36923 4.94626 2.45285 4.95326 2.48072C4.98827 2.48769 5.04428 2.49466 5.10029 2.49466C5.59038 2.49466 6.20649 2.16715 6.57056 1.72814ZM6.95563 2.61312C6.13648 2.61312 5.47135 3.10787 5.04428 3.10787C4.58919 3.10787 3.99408 2.64099 3.27995 2.64099C1.92871 2.64099 0.556458 3.75593 0.556458 5.85339C0.556458 7.16344 1.06055 8.54316 1.69066 9.43511C2.22976 10.1877 2.69885 10.8079 3.37797 10.8079C4.0501 10.8079 4.34415 10.3619 5.1773 10.3619C6.02446 10.3619 6.21349 10.7939 6.95563 10.7939C7.69076 10.7939 8.18085 10.125 8.64293 9.46298C9.16103 8.70343 9.37807 7.96479 9.38507 7.92995C9.34306 7.91602 7.9358 7.34461 7.9358 5.7419C7.9358 4.3552 9.04201 3.73502 9.10502 3.68624C8.37688 2.64099 7.26368 2.61312 6.95563 2.61312ZM12.0744 10.7312H13.9647L14.8189 8.13203H18.5786L19.4327 10.7312H21.3301L17.7174 0.675927H15.6871L12.0744 10.7312ZM16.6812 2.46679H16.7233L18.1235 6.74534H15.274L16.6812 2.46679ZM22.7203 2.28561C23.2664 2.28561 23.6864 1.85357 23.6864 1.33792C23.6864 0.808325 23.2664 0.383258 22.7203 0.383258C22.1742 0.383258 21.7471 0.808325 21.7471 1.33792C21.7471 1.85357 22.1742 2.28561 22.7203 2.28561ZM21.8451 10.7312H23.5884V3.34479H21.8451V10.7312ZM24.6355 10.7312H26.3789V6.4457C26.3789 5.35167 26.974 4.73149 27.9611 4.73149C28.2552 4.73149 28.5212 4.7733 28.6683 4.82905V3.26117C28.5353 3.22633 28.3322 3.19149 28.1152 3.19149C27.261 3.19149 26.6449 3.72805 26.4139 4.62H26.3789V3.34479H24.6355L24.6355 10.7312ZM29.3093 10.7312H31.1156V7.40733H33.202C35.2464 7.40733 36.6397 6.05547 36.6397 4.0486V4.03466C36.6397 2.02081 35.2464 0.675927 33.202 0.675927H29.3093V10.7312ZM32.7539 2.14624C34.0492 2.14624 34.8053 2.83611 34.8053 4.04163V4.05556C34.8053 5.26108 34.0492 5.95792 32.7539 5.95792H31.1156V2.14624H32.7539ZM40.3543 10.8776C42.5317 10.8776 43.9459 9.43511 43.9459 7.03801V7.02407C43.9459 4.6409 42.5106 3.19149 40.3472 3.19149C38.1909 3.19149 36.7626 4.65484 36.7626 7.02407V7.03801C36.7626 9.42814 38.1699 10.8776 40.3543 10.8776ZM40.3612 9.47692C39.248 9.47692 38.5409 8.59194 38.5409 7.03801V7.02407C38.5409 5.49104 39.262 4.59909 40.3472 4.59909C41.4534 4.59909 42.1676 5.48407 42.1676 7.02407V7.03801C42.1676 8.58497 41.4604 9.47692 40.3612 9.47692ZM47.3945 10.8776C48.4657 10.8776 49.2848 10.348 49.7049 9.47692H49.7469V10.7312H51.4902V0.675927H49.7469V4.61303H49.7049C49.2848 3.72805 48.4376 3.19149 47.3875 3.19149C45.5251 3.19149 44.3279 4.64787 44.3279 7.03104V7.038C44.3279 9.4142 45.5181 10.8776 47.3945 10.8776ZM47.9196 9.4142C46.7994 9.4142 46.1062 8.50832 46.1062 7.03801V7.03104C46.1062 5.56072 46.8064 4.65484 47.9196 4.65484C48.9907 4.65484 49.7469 5.5886 49.7469 7.03104V7.03801C49.7469 8.48742 48.9978 9.4142 47.9196 9.4142ZM55.4218 10.8776C57.2422 10.8776 58.5374 9.9438 58.5374 8.55013V8.54316C58.5374 7.47004 57.9423 6.87076 56.409 6.52932L55.1698 6.25755C54.3997 6.08334 54.1126 5.80461 54.1126 5.37954V5.37257C54.1126 4.82904 54.5957 4.47366 55.3658 4.47366C56.178 4.47366 56.6541 4.9057 56.7311 5.498L56.7381 5.55375H58.3624L58.3554 5.4771C58.2924 4.20189 57.2142 3.19149 55.3658 3.19149C53.5735 3.19149 52.3903 4.10434 52.3903 5.45619V5.46316C52.3903 6.55719 53.1044 7.24705 54.5257 7.56062L55.7579 7.83239C56.528 8.0066 56.7871 8.25746 56.7871 8.70343V8.7104C56.7871 9.25393 56.276 9.59538 55.4288 9.59538C54.5467 9.59538 54.0636 9.21909 53.9306 8.58497L53.9166 8.52225H52.2013L52.2083 8.58497C52.3623 9.95773 53.4755 10.8776 55.4218 10.8776ZM61.8289 10.7312H63.4602V3.58172H63.5092L66.4217 10.7312H67.6469L70.5595 3.58172H70.6155V10.7312H72.2398V0.675927H70.1534L67.0588 8.35502H67.0098L63.9152 0.675927H61.8289V10.7312ZM75.4293 10.8566C76.4094 10.8566 77.2356 10.3689 77.6627 9.59538H77.7047V10.7312H79.448V5.65131C79.448 4.16706 78.2508 3.19149 76.3954 3.19149C74.5121 3.19149 73.3709 4.17403 73.2659 5.48407L73.2589 5.56769H74.8762L74.8902 5.50497C75.0022 4.96145 75.5063 4.57819 76.3324 4.57819C77.2146 4.57819 77.7047 5.03113 77.7047 5.77674V6.28543L75.7653 6.40389C73.966 6.51538 72.9438 7.3028 72.9438 8.61285V8.62678C72.9438 9.9438 73.945 10.8566 75.4293 10.8566ZM74.6801 8.5571V8.55013C74.6801 7.96479 75.1492 7.59547 76.0104 7.53972L77.7047 7.4352V7.99266C77.7047 8.87067 76.9485 9.53266 75.9474 9.53266C75.1842 9.53266 74.6801 9.16334 74.6801 8.5571ZM79.879 10.7312H81.7413L83.2746 8.08325H83.3166L84.8569 10.7312H86.7613L84.3948 6.9962L86.7823 3.34479H84.8779L83.4006 5.93701H83.3586L81.8674 3.34479H79.907L82.2804 7.04497L79.879 10.7312Z" fill="white"/>
</g>
<defs>
<clipPath id="clip0_12_489">
<rect width="86.2258" height="10.8776" fill="white" transform="translate(0.556458)"/>
</clipPath>
</defs>
</svg>
