<svg width="128" height="25" viewBox="0 0 128 25" fill="none" xmlns="http://www.w3.org/2000/svg">
<path d="M16.3697 4.57331C16.9345 3.96672 17.3351 3.14057 17.3351 2.30401C17.336 2.19503 17.3243 2.08686 17.2999 1.98029C16.3814 2.01154 15.2743 2.52357 14.6157 3.21429C14.0978 3.73674 13.6151 4.57331 13.6151 5.41067C13.616 5.50923 13.6277 5.60699 13.6503 5.70315C13.7315 5.71677 13.8145 5.72398 13.8975 5.72398C14.7213 5.72398 15.757 5.23278 16.3697 4.57331ZM17.0166 5.90187C15.6389 5.90187 14.5201 6.64388 13.8019 6.64388C13.0368 6.64388 12.0362 5.94354 10.8344 5.94354C8.56248 5.94354 6.25452 7.61666 6.25452 10.7642C6.25452 12.7298 7.10263 14.8004 8.16188 16.1393C9.06865 17.2684 9.85722 18.1995 10.9995 18.1995C12.13 18.1995 12.6244 17.5304 14.0256 17.5304C15.4503 17.5304 15.7679 18.1787 17.0166 18.1787C18.2527 18.1787 19.0773 17.1746 19.8542 16.181C20.7258 15.0415 21.0903 13.9325 21.102 13.8805C21.0316 13.8596 18.665 13.0022 18.665 10.5975C18.665 8.51653 20.5255 7.58621 20.631 7.51329C19.4067 5.94354 17.5345 5.90187 17.0166 5.90187ZM28.7513 18.0841H31.6593L37.7116 2.99554H34.874L30.2346 15.4807H30.176L25.5375 2.99554H22.6999L28.7513 18.0841Z" fill="white"/>
<path d="M40.3605 5.38896C41.196 5.38896 41.8438 4.80321 41.8438 4.09245C41.8438 3.37128 41.196 2.78552 40.3605 2.78552C39.5358 2.78552 38.8772 3.37128 38.8772 4.09245C38.8772 4.80401 39.5367 5.38896 40.3605 5.38896ZM39.0892 18.0832H41.6327V7.08292H39.0892V18.0832Z" fill="white"/>
<path d="M48.4303 18.3036C51.35 18.3036 53.4694 16.9229 53.4694 14.9157V14.9052C53.4694 13.3259 52.504 12.4372 49.9722 11.9148L47.9593 11.5069C46.6285 11.2249 46.1223 10.7649 46.1223 10.0846V10.0742C46.1223 9.19595 46.9813 8.62062 48.3482 8.62062C49.7846 8.62062 50.6327 9.2897 50.7852 10.2521L50.7969 10.325H53.187L53.1752 10.2C53.0453 8.32814 51.2796 6.87457 48.3482 6.87457C45.4989 6.87457 43.568 8.22317 43.568 10.1896V10.2C43.568 11.8002 44.7337 12.8034 47.0886 13.2842L49.1142 13.6921C50.445 13.9741 50.8925 14.382 50.8925 15.0936V15.104C50.8925 15.9926 49.974 16.5575 48.4438 16.5575C46.8775 16.5575 46.0303 15.9614 45.7948 14.9469L45.7713 14.8427H43.2513L43.2631 14.9373C43.5202 16.9438 45.3337 18.3036 48.4303 18.3036Z" fill="white"/>
<path d="M56.6405 5.38884C57.476 5.38884 58.1238 4.80308 58.1238 4.09233C58.1238 3.37115 57.476 2.7854 56.6405 2.7854C55.8159 2.7854 55.1572 3.37115 55.1572 4.09233C55.1563 4.80389 55.8159 5.38884 56.6405 5.38884ZM55.3684 18.0831H57.9118V7.0828H55.3684V18.0831Z" fill="white"/>
<path d="M65.5715 18.3035C69.1156 18.3035 71.447 16.1287 71.447 12.5838V12.5629C71.447 9.0396 69.0921 6.87448 65.5598 6.87448C62.0392 6.87448 59.696 9.04922 59.696 12.5629V12.5838C59.6969 16.1175 62.0166 18.3035 65.5715 18.3035ZM65.5832 16.4108C63.5938 16.4108 62.2981 15.0197 62.2981 12.5838V12.5629C62.2981 10.1582 63.6046 8.76716 65.5598 8.76716C67.5493 8.76716 68.8449 10.1582 68.8449 12.5629V12.5838C68.8449 15.0093 67.5736 16.4108 65.5832 16.4108ZM72.9538 18.0839H75.4972V11.6743C75.4972 9.9595 76.6512 8.80963 78.4404 8.80963C80.2061 8.80963 81.0776 9.73994 81.0776 11.3922V18.0847H83.6328V10.9635C83.6328 8.43301 82.0665 6.87528 79.3471 6.87528C77.4749 6.87528 76.2037 7.6285 75.5559 8.74712H75.4972V7.08442H72.9538V18.0839ZM89.7564 18.0839H92.3937V12.9283H96.0794C99.4114 12.9283 101.719 10.9098 101.719 7.96185V7.94101C101.719 4.9818 99.4114 2.99536 96.0794 2.99536H89.7564V18.0839ZM95.4199 4.97138C97.7161 4.97138 99.0343 6.06917 99.0343 7.95143V7.97226C99.0343 9.86495 97.7152 10.9627 95.4199 10.9627H92.3937V4.97058L95.4199 4.97138ZM103.257 18.0839H105.8V11.5276C105.8 9.88578 106.813 8.93463 108.449 8.93463C108.944 8.93463 109.391 8.98672 109.592 9.05964V6.95781C109.391 6.92656 109.074 6.87448 108.708 6.87448C107.295 6.87448 106.26 7.67979 105.859 8.96588H105.8V7.08362H103.257V18.0839ZM115.869 18.3035C119.413 18.3035 121.744 16.1287 121.744 12.5838V12.5629C121.744 9.0396 119.389 6.87448 115.857 6.87448C112.336 6.87448 109.993 9.04922 109.993 12.5629V12.5838C109.993 16.1175 112.313 18.3035 115.869 18.3035ZM115.879 16.4108C113.89 16.4108 112.594 15.0197 112.594 12.5838V12.5629C112.594 10.1582 113.901 8.76716 115.856 8.76716C117.845 8.76716 119.141 10.1582 119.141 12.5629V12.5838C119.141 15.0093 117.87 16.4108 115.879 16.4108Z" fill="white"/>
</svg>
