<svg width="34" height="34" viewBox="0 0 34 34" fill="none" xmlns="http://www.w3.org/2000/svg">
<g clip-path="url(#clip0_12_231)">
<path d="M24.9064 11.4164V10.1483C24.9185 9.62268 24.8105 9.10122 24.5908 8.62355C24.371 8.14588 24.0453 7.72458 23.6384 7.39166C23.0428 6.88038 22.5655 6.2458 22.2395 5.53183C21.9134 4.81785 21.7464 4.04155 21.7501 3.25666V2.09886C21.7464 1.67356 21.5749 1.26691 21.2729 0.96745C20.9709 0.667995 20.5627 0.499984 20.1374 0.5L12.1431 0.5C11.7191 0.5 11.3124 0.668451 11.0125 0.968297C10.7127 1.26814 10.5442 1.67482 10.5442 2.09886V3.25666C10.548 4.04293 10.3797 4.82049 10.0511 5.53481C9.72254 6.24913 9.24163 6.8829 8.64214 7.39166C8.23519 7.72458 7.90948 8.14588 7.68976 8.62355C7.47003 9.10122 7.36207 9.62268 7.37407 10.1483V24.0695C7.38257 24.5719 7.50041 25.0664 7.7194 25.5187C7.93839 25.9709 8.25327 26.3701 8.64214 26.6883C9.24163 27.1971 9.72254 27.8308 10.0511 28.5451C10.3797 29.2595 10.548 30.037 10.5442 30.8233V31.9535C10.5406 32.1658 10.5792 32.3767 10.6579 32.5739C10.7366 32.771 10.8538 32.9506 11.0027 33.102C11.1515 33.2534 11.329 33.3736 11.5248 33.4557C11.7206 33.5377 11.9308 33.58 12.1431 33.58H20.1374C20.5627 33.58 20.9709 33.412 21.2729 33.1125C21.5749 32.8131 21.7464 32.4064 21.7501 31.9811V30.8233C21.7464 30.0384 21.9134 29.2621 22.2395 28.5481C22.5655 27.8342 23.0428 27.1996 23.6384 26.6883C24.0344 26.3641 24.3535 25.9561 24.5728 25.4938C24.792 25.0314 24.906 24.5261 24.9064 24.0143V15.3584H25.7059V11.4164H24.9064ZM24.2035 24.1246C24.2071 24.4588 24.1447 24.7904 24.0197 25.1004C23.8948 25.4104 23.7098 25.6926 23.4754 25.9309C23.2409 26.1691 22.9618 26.3587 22.6539 26.4887C22.3459 26.6187 22.0154 26.6865 21.6812 26.6883H10.6545C9.98299 26.6847 9.34002 26.4163 8.86519 25.9415C8.39035 25.4667 8.12199 24.8237 8.11837 24.1522V9.95536C8.11443 9.29078 8.3701 8.65093 8.83094 8.17208C9.29177 7.69322 9.92135 7.4132 10.5856 7.39166H21.6812C22.3514 7.3953 22.9929 7.66411 23.4656 8.13933C23.9382 8.61455 24.2035 9.25755 24.2035 9.92779V24.1246Z" fill="#303030"/>
</g>
<defs>
<clipPath id="clip0_12_231">
<rect width="33.08" height="33.08" fill="white" transform="translate(0 0.5)"/>
</clipPath>
</defs>
</svg>
