<svg width="34" height="34" viewBox="0 0 34 34" fill="none" xmlns="http://www.w3.org/2000/svg">
<g clip-path="url(#clip0_12_225)">
<path d="M30.8746 8.72988C30.7545 7.79787 30.3077 6.9387 29.6137 6.3052C28.9196 5.6717 28.0233 5.30498 27.0842 5.27026H5.99574C5.05838 5.31039 4.165 5.67896 3.47202 6.31146C2.77905 6.94395 2.33065 7.80006 2.20533 8.72988L0 18.006V25.3388C0.00364611 26.2576 0.371201 27.1375 1.02219 27.7859C1.67319 28.4343 2.55458 28.7984 3.4734 28.7984H29.6617C30.5709 28.784 31.4382 28.4135 32.0774 27.7667C32.7165 27.1198 33.0765 26.2481 33.08 25.3388V18.006L30.8746 8.72988ZM11.9777 11.4865C11.9929 11.4046 12.0208 11.3255 12.0604 11.2522C12.125 11.0793 12.2465 10.9334 12.405 10.8387C12.5296 10.7648 12.6642 10.7091 12.8047 10.6733C12.9759 10.6221 13.1511 10.5852 13.3285 10.5631C13.3349 10.5902 13.3349 10.6186 13.3285 10.6458C13.3344 10.751 13.2999 10.8545 13.232 10.9352C13.0673 11.1524 12.8342 11.3078 12.5704 11.3763C12.4607 11.3919 12.3493 11.3919 12.2396 11.3763H11.9777V11.4865ZM14.7344 13.4438C14.6102 13.6364 14.4567 13.8084 14.2795 13.9538C14.156 14.0551 14.022 14.1429 13.8798 14.2156C13.7684 14.2803 13.6475 14.3268 13.5214 14.3535C13.3804 14.3813 13.2352 14.3813 13.0942 14.3535C12.9288 14.3535 12.7771 14.3535 12.6117 14.2708H12.212C12.0519 14.2498 11.8897 14.2498 11.7296 14.2708H11.385L11.0267 14.2432C10.8764 14.2716 10.7221 14.2716 10.5718 14.2432C10.4559 14.2188 10.3444 14.177 10.241 14.1192C10.081 14.0328 9.93278 13.9263 9.79994 13.8021C9.60489 13.6367 9.4374 13.4413 9.30374 13.2232C9.25399 13.1092 9.22147 12.9885 9.20726 12.8649C9.18716 12.7509 9.18716 12.6343 9.20726 12.5203C9.2107 12.3526 9.26343 12.1896 9.35887 12.0517C9.47841 11.8894 9.63415 11.7572 9.81372 11.6657C10.0204 11.5633 10.2452 11.5024 10.4753 11.4865H10.875C11.0971 11.5005 11.318 11.5281 11.5366 11.5692H11.9226H12.2258C12.405 11.583 12.5428 11.4865 12.7082 11.4865H13.1217H13.5077C13.7327 11.507 13.9547 11.5532 14.1692 11.6244C14.2959 11.6744 14.4161 11.7392 14.5276 11.8173H14.5965H14.4587C14.3145 11.8867 14.1801 11.9747 14.059 12.0792C13.975 12.1584 13.9133 12.2582 13.8798 12.3687C13.8613 12.4906 13.8804 12.6153 13.9345 12.7262C13.9887 12.837 14.0754 12.9286 14.183 12.9889C14.2923 13.0706 14.4131 13.1357 14.5414 13.1819H14.7895L14.7344 13.4438ZM18.635 14.3259H17.9734C16.7881 14.3259 16.4573 14.0916 16.4573 13.554V11.9965H15.713V11.5555H16.54V10.8801H17.5462V11.5555H18.6488V11.9965H17.5462V13.3749C17.5462 13.6643 17.7529 13.747 18.3042 13.747H18.704L18.635 14.3259ZM22.136 14.3259H21.0196L19.3656 11.4865H20.4958L21.5847 13.6367L22.8252 11.4865H23.9141L22.136 14.3259Z" fill="#303030"/>
</g>
<defs>
<clipPath id="clip0_12_225">
<rect width="33.08" height="33.08" fill="white" transform="translate(0 0.459961)"/>
</clipPath>
</defs>
</svg>
