<svg width="19" height="16" viewBox="0 0 19 16" fill="none" xmlns="http://www.w3.org/2000/svg">
<path opacity="0.4" d="M17.3334 8.90886L8.73762 8.90886C8.33996 8.90886 8.01722 8.47416 8.01722 7.93855C8.01722 7.40293 8.33996 6.96823 8.73762 6.96823L17.3334 6.96823C17.7311 6.96823 18.0538 7.40293 18.0538 7.93855C18.0538 8.47416 17.7311 8.90886 17.3334 8.90886Z" fill="#FF510C"/>
<mask id="mask0_12_476" style="mask-type:luminance" maskUnits="userSpaceOnUse" x="0" y="0" width="10" height="16">
<path d="M9.45776 0.498016L9.45776 15.3785L0.394076 15.3785L0.394076 0.498016L9.45776 0.498016Z" fill="#FF510C"/>
</mask>
<g mask="url(#mask0_12_476)">
<path d="M7.94132 14.1543C7.83603 14.1543 7.73224 14.1126 7.64049 14.0314L1.67207 8.68752C1.50812 8.54006 1.4081 8.28467 1.4081 8.00898C1.4081 7.73329 1.50812 7.47791 1.67207 7.33044L7.64049 1.98656C7.81422 1.83162 8.03382 1.822 8.21357 1.96412C8.39406 2.10517 8.50537 2.37338 8.50537 2.6651L8.50537 13.3529C8.50537 13.6446 8.39406 13.9128 8.21357 14.0538C8.12858 14.1212 8.03458 14.1543 7.94132 14.1543Z" fill="#FF510C"/>
</g>
</svg>
