<svg width="28" height="28" viewBox="0 0 28 28" fill="none" xmlns="http://www.w3.org/2000/svg">
<path d="M15.155 3.20833C16.1593 3.20833 16.6038 3.20921 16.9704 3.24203C21.0459 3.60692 24.2759 6.83686 24.6408 10.9124C24.6736 11.279 24.6745 11.7235 24.6745 12.7278V13.8827C24.6745 14.366 25.0662 14.7577 25.5495 14.7577C26.0327 14.7577 26.4245 14.366 26.4245 13.8827V12.669C26.4245 11.7392 26.4245 11.2109 26.3838 10.7563C25.9434 5.83759 22.0452 1.93939 17.1265 1.499C16.6719 1.4583 16.1435 1.45831 15.2137 1.45833H14C13.5168 1.45833 13.125 1.85008 13.125 2.33333C13.125 2.81658 13.5168 3.20833 14 3.20833L15.155 3.20833Z" fill="#FF510C"/>
<path fill-rule="evenodd" clip-rule="evenodd" d="M8.29706 4.69618C7.06962 3.56832 5.18294 3.56832 3.9555 4.69618C3.90524 4.74236 3.85158 4.79603 3.7819 4.86573L2.73481 5.91282C1.68118 6.96645 1.23887 8.48536 1.56211 9.93993C3.39608 18.1928 9.84137 24.6381 18.0942 26.472C19.5488 26.7953 21.0677 26.353 22.1213 25.2993L23.1683 24.2524C23.238 24.1826 23.2917 24.1289 23.338 24.0786C24.4658 22.8512 24.4658 20.9645 23.338 19.7371C23.2917 19.6868 23.2381 19.6331 23.1683 19.5634L21.4542 17.8492C20.264 16.6591 18.4668 16.3187 16.9239 16.9913C16.0406 17.3763 15.0117 17.1814 14.3303 16.5001L11.534 13.7038C10.8527 13.0225 10.6578 11.9935 11.0429 11.1103C11.7154 9.56738 11.375 7.7701 10.1849 6.57998L8.47069 4.86576C8.401 4.79605 8.34733 4.74237 8.29706 4.69618ZM5.13956 5.98478C5.69749 5.47212 6.55507 5.47212 7.113 5.98478C7.13225 6.00248 7.1575 6.02744 7.24624 6.11619L8.94747 7.81742C9.62881 8.49875 9.82367 9.52769 9.43865 10.411C8.76611 11.9539 9.10649 13.7511 10.2966 14.9413L13.0929 17.7375C14.283 18.9277 16.0803 19.268 17.6232 18.5955C18.5065 18.2105 19.5354 18.4053 20.2167 19.0867L21.918 20.7879C22.0067 20.8766 22.0317 20.9019 22.0494 20.9211C22.562 21.4791 22.562 22.3367 22.0494 22.8946C22.0317 22.9138 22.0067 22.9391 21.9179 23.0278L20.8839 24.0619C20.2533 24.6924 19.3443 24.9571 18.4738 24.7637C10.8843 23.0771 4.95701 17.1499 3.27044 9.56031C3.077 8.6898 3.3417 7.78081 3.97225 7.15026L5.00631 6.11619C5.09506 6.02744 5.1203 6.00248 5.13956 5.98478Z" fill="#FF510C"/>
<path d="M14.8249 5.58312C14.3416 5.58312 13.9499 5.97487 13.9499 6.45812C13.9499 6.94137 14.3416 7.33312 14.8249 7.33312H15.4848C15.4976 7.33312 15.5093 7.33312 15.5203 7.33312C15.5969 7.33313 15.6325 7.3332 15.6622 7.33363C18.345 7.37205 20.5106 9.53761 20.549 12.2204C20.5495 12.2544 20.5495 12.296 20.5495 12.3978V13.0578C20.5495 13.541 20.9413 13.9328 21.4245 13.9328C21.9078 13.9328 22.2995 13.541 22.2995 13.0578V12.3893C22.2995 12.378 22.2995 12.3672 22.2995 12.357C22.2995 12.285 22.2994 12.2375 22.2988 12.1954C22.2469 8.56566 19.317 5.63579 15.6873 5.58381C15.6391 5.58312 15.584 5.58312 15.4933 5.58312H14.8249Z" fill="#FF510C"/>
</svg>
