<svg width="34" height="34" viewBox="0 0 34 34" fill="none" xmlns="http://www.w3.org/2000/svg">
<g clip-path="url(#clip0_12_213)">
<path d="M25.9264 0.459961H7.15356C6.58695 0.459961 6.04355 0.685047 5.64289 1.0857C5.24224 1.48636 5.01715 2.02976 5.01715 2.59637V31.4035C5.01715 31.6841 5.07241 31.9619 5.17978 32.2211C5.28714 32.4803 5.44451 32.7158 5.64289 32.9142C5.84128 33.1126 6.07679 33.2699 6.33599 33.3773C6.5952 33.4847 6.87301 33.5399 7.15356 33.5399H25.9264C26.207 33.5399 26.4848 33.4847 26.744 33.3773C27.0032 33.2699 27.2387 33.1126 27.4371 32.9142C27.6355 32.7158 27.7929 32.4803 27.9002 32.2211C28.0076 31.9619 28.0629 31.6841 28.0629 31.4035V2.59637C28.0629 2.02976 27.8378 1.48636 27.4371 1.0857C27.0365 0.685047 26.4931 0.459961 25.9264 0.459961V0.459961ZM16.54 15.2908C16.5256 15.2041 16.5256 15.1156 16.54 15.0289C16.5803 14.9092 16.6409 14.7973 16.7192 14.6981C16.7876 14.6267 16.8667 14.5663 16.9535 14.5189C17.0499 14.4704 17.1517 14.4334 17.2567 14.4087C17.2632 14.4359 17.2632 14.4642 17.2567 14.4914C17.2844 14.5906 17.2844 14.6954 17.2567 14.7946C17.1944 14.9912 17.0619 15.158 16.8846 15.2632C16.8168 15.2807 16.7456 15.2807 16.6778 15.2632H16.5538L16.54 15.2908ZM10.2824 4.59496C10.2787 4.90694 10.1523 5.20491 9.93036 5.42424C9.70845 5.64357 9.40902 5.76656 9.09701 5.76654H7.5395C7.22877 5.76654 6.93078 5.6431 6.71106 5.42339C6.49135 5.20368 6.36792 4.90568 6.36792 4.59496V2.81691C6.36789 2.5049 6.49089 2.20547 6.71021 1.98356C6.92954 1.76166 7.22751 1.63517 7.5395 1.63154H9.09701C9.41028 1.63512 9.70971 1.76116 9.93123 1.98269C10.1528 2.20421 10.2788 2.50364 10.2824 2.81691V4.59496ZM15.7957 32.1616C15.7357 32.1616 15.6771 32.1438 15.6272 32.1105C15.5774 32.0772 15.5385 32.0298 15.5156 31.9744C15.4926 31.919 15.4866 31.858 15.4983 31.7992C15.51 31.7404 15.5389 31.6863 15.5813 31.6439C15.6237 31.6015 15.6777 31.5727 15.7365 31.561C15.7954 31.5492 15.8563 31.5553 15.9117 31.5782C15.9672 31.6012 16.0145 31.64 16.0478 31.6899C16.0812 31.7398 16.0989 31.7984 16.0989 31.8584C16.0769 31.9262 16.0317 31.9842 15.9712 32.022C15.9107 32.0598 15.8388 32.0751 15.7681 32.0651L15.7957 32.1616ZM16.5676 32.1616C16.5076 32.1616 16.449 32.1438 16.3991 32.1105C16.3492 32.0772 16.3104 32.0298 16.2874 31.9744C16.2645 31.919 16.2585 31.858 16.2702 31.7992C16.2819 31.7404 16.3107 31.6863 16.3532 31.6439C16.3956 31.6015 16.4496 31.5727 16.5084 31.561C16.5672 31.5492 16.6282 31.5553 16.6836 31.5782C16.739 31.6012 16.7864 31.64 16.8197 31.6899C16.853 31.7398 16.8708 31.7984 16.8708 31.8584C16.8488 31.9262 16.8036 31.9842 16.7431 32.022C16.6826 32.0598 16.6107 32.0751 16.54 32.0651L16.5676 32.1616ZM17.3394 32.1616C17.2795 32.1616 17.2208 32.1438 17.171 32.1105C17.1211 32.0772 17.0822 32.0298 17.0593 31.9744C17.0363 31.919 17.0303 31.858 17.042 31.7992C17.0537 31.7404 17.0826 31.6863 17.125 31.6439C17.1674 31.6015 17.2215 31.5727 17.2803 31.561C17.3391 31.5492 17.4001 31.5553 17.4555 31.5782C17.5109 31.6012 17.5582 31.64 17.5916 31.6899C17.6249 31.7398 17.6427 31.7984 17.6427 31.8584C17.6207 31.9262 17.5754 31.9842 17.5149 32.022C17.4544 32.0598 17.3825 32.0751 17.3119 32.0651L17.3394 32.1616ZM18.1802 17.4548C18.1182 17.6409 18.03 17.8173 17.9183 17.9786C17.8558 18.0867 17.7767 18.1843 17.684 18.268C17.6237 18.3293 17.5539 18.3805 17.4773 18.4196C17.3959 18.4406 17.3105 18.4406 17.2292 18.4196C17.1339 18.4049 17.0411 18.377 16.9535 18.3369H16.7192C16.6285 18.3158 16.5342 18.3158 16.4435 18.3369H16.2368H16.0438C15.9587 18.3643 15.8671 18.3643 15.7819 18.3369C15.71 18.3089 15.6444 18.2667 15.589 18.2129C15.4944 18.112 15.4112 18.0011 15.3409 17.8821C15.2169 17.6893 15.1196 17.4806 15.0514 17.2618C15.0128 17.1395 14.9806 17.0153 14.9549 16.8897C14.9478 16.7703 14.9478 16.6507 14.9549 16.5313C14.9535 16.3611 14.9863 16.1924 15.0514 16.0351C15.1038 15.882 15.1939 15.7446 15.3133 15.6354C15.4212 15.5233 15.5606 15.4464 15.713 15.4149H15.9335C16.0649 15.4278 16.1944 15.4555 16.3195 15.4976H16.5538C16.6081 15.511 16.6649 15.511 16.7192 15.4976L17.0086 15.4149H17.243H17.4773C17.6103 15.4315 17.7377 15.4786 17.8494 15.5527C17.9292 15.6095 18.003 15.6742 18.07 15.7457L17.9873 15.8284C17.9031 15.9061 17.8291 15.9941 17.7667 16.0902C17.7097 16.1877 17.6722 16.2954 17.6565 16.4073C17.641 16.5217 17.6489 16.6382 17.6797 16.7495C17.7105 16.8609 17.7635 16.9648 17.8356 17.0551C17.8902 17.137 17.9605 17.2073 18.0424 17.2618L18.1802 17.3307V17.4548Z" fill="#303030"/>
<path d="M7.47058 3.50597C7.86642 3.50597 8.18731 3.18508 8.18731 2.78924C8.18731 2.3934 7.86642 2.07251 7.47058 2.07251C7.07474 2.07251 6.75385 2.3934 6.75385 2.78924C6.75385 3.18508 7.07474 3.50597 7.47058 3.50597Z" fill="#303030"/>
<path d="M7.47058 5.29797C7.86642 5.29797 8.18731 4.97707 8.18731 4.58123C8.18731 4.18539 7.86642 3.8645 7.47058 3.8645C7.07474 3.8645 6.75385 4.18539 6.75385 4.58123C6.75385 4.97707 7.07474 5.29797 7.47058 5.29797Z" fill="#303030"/>
<path d="M9.13839 2.70658C9.21515 2.70658 9.28878 2.67609 9.34306 2.62181C9.39734 2.56752 9.42784 2.4939 9.42784 2.41714C9.42784 2.34037 9.39734 2.26675 9.34306 2.21246C9.28878 2.15818 9.21515 2.12769 9.13839 2.12769C9.06162 2.12769 8.988 2.15818 8.93372 2.21246C8.87943 2.26675 8.84894 2.34037 8.84894 2.41714C8.84894 2.4939 8.87943 2.56752 8.93372 2.62181C8.988 2.67609 9.06162 2.70658 9.13839 2.70658Z" fill="#303030"/>
<path d="M9.16592 4.719C9.1466 4.7189 9.12748 4.72287 9.10979 4.73064C9.0921 4.73841 9.07624 4.74981 9.06324 4.76411C9.05025 4.77841 9.0404 4.79528 9.03434 4.81362C9.02829 4.83197 9.02616 4.85139 9.02809 4.87061C9.02587 4.88925 9.02791 4.90814 9.03406 4.92587C9.0402 4.9436 9.05029 4.95971 9.06355 4.97298C9.07682 4.98625 9.09293 4.99634 9.11066 5.00248C9.12839 5.00862 9.14729 5.01066 9.16592 5.00845C9.18515 5.01038 9.20456 5.00825 9.22291 5.00219C9.24126 4.99613 9.25813 4.98629 9.27242 4.97329C9.28672 4.96029 9.29813 4.94444 9.3059 4.92675C9.31367 4.90906 9.31764 4.88993 9.31754 4.87061C9.31754 4.8507 9.31362 4.83099 9.306 4.81259C9.29838 4.7942 9.28721 4.77748 9.27313 4.7634C9.25905 4.74932 9.24234 4.73816 9.22394 4.73054C9.20555 4.72292 9.18583 4.719 9.16592 4.719Z" fill="#303030"/>
<path d="M9.16591 3.05127C9.00507 3.05127 8.85081 3.11516 8.73708 3.2289C8.62334 3.34263 8.55945 3.49689 8.55945 3.65774C8.55945 3.81858 8.62334 3.97284 8.73708 4.08657C8.85081 4.20031 9.00507 4.2642 9.16591 4.2642C9.32676 4.2642 9.48102 4.20031 9.59475 4.08657C9.70849 3.97284 9.77238 3.81858 9.77238 3.65774C9.77238 3.49689 9.70849 3.34263 9.59475 3.2289C9.48102 3.11516 9.32676 3.05127 9.16591 3.05127Z" fill="#303030"/>
</g>
<defs>
<clipPath id="clip0_12_213">
<rect width="33.08" height="33.08" fill="white" transform="translate(0 0.459961)"/>
</clipPath>
</defs>
</svg>
