<svg width="34" height="34" viewBox="0 0 34 34" fill="none" xmlns="http://www.w3.org/2000/svg">
<g clip-path="url(#clip0_12_221)">
<path d="M11.4677 5.00852C11.7763 5.01126 12.0788 4.92224 12.3367 4.75276C12.5947 4.58329 12.7964 4.341 12.9164 4.05666C13.0364 3.77231 13.0692 3.45872 13.0107 3.15569C12.9522 2.85266 12.8049 2.57385 12.5877 2.35465C12.3704 2.13544 12.0929 1.98573 11.7904 1.92451C11.4879 1.86328 11.1741 1.89331 10.8887 2.01078C10.6033 2.12825 10.3592 2.32786 10.1874 2.58428C10.0157 2.84071 9.92396 3.14238 9.92395 3.45101C9.92393 3.86171 10.0861 4.2558 10.3753 4.54749C10.6644 4.83919 11.057 5.00489 11.4677 5.00852Z" fill="#303030"/>
<path d="M11.5366 5.97321C11.228 5.97322 10.9263 6.06492 10.6699 6.23668C10.4135 6.40844 10.2139 6.65251 10.0964 6.93791C9.97895 7.22332 9.94892 7.53718 10.0101 7.83968C10.0714 8.14218 10.2211 8.41967 10.4403 8.63693C10.6595 8.8542 10.9383 9.00144 11.2413 9.05997C11.5444 9.1185 11.8579 9.08568 12.1423 8.96568C12.4266 8.84568 12.6689 8.64391 12.8384 8.38597C13.0079 8.12803 13.0969 7.82556 13.0942 7.51694C13.0942 7.31305 13.0538 7.11117 12.9753 6.92298C12.8969 6.73478 12.782 6.56398 12.6371 6.42045C12.4923 6.27692 12.3205 6.1635 12.1316 6.08674C11.9427 6.00997 11.7405 5.97139 11.5366 5.97321Z" fill="#303030"/>
<path d="M15.2444 3.21673C15.3779 3.21673 15.5085 3.17712 15.6196 3.10291C15.7306 3.0287 15.8172 2.92322 15.8683 2.79981C15.9194 2.6764 15.9328 2.5406 15.9068 2.40959C15.8807 2.27858 15.8164 2.15824 15.7219 2.06378C15.6275 1.96933 15.5071 1.905 15.3761 1.87894C15.2451 1.85288 15.1093 1.86626 14.9859 1.91738C14.8625 1.9685 14.757 2.05506 14.6828 2.16613C14.6086 2.27719 14.569 2.40777 14.569 2.54135C14.569 2.72047 14.6401 2.89226 14.7668 3.01892C14.8934 3.14558 15.0652 3.21673 15.2444 3.21673Z" fill="#303030"/>
<path d="M15.9473 8.45428C15.95 8.31684 15.9116 8.18173 15.8369 8.0663C15.7622 7.95088 15.6548 7.86043 15.5283 7.80657C15.4018 7.75271 15.2621 7.7379 15.1272 7.76405C14.9922 7.7902 14.8681 7.85611 14.7709 7.95332C14.6737 8.05052 14.6078 8.17457 14.5817 8.30953C14.5555 8.44449 14.5703 8.58418 14.6242 8.71066C14.6781 8.83713 14.7685 8.94461 14.8839 9.01928C14.9994 9.09394 15.1345 9.13238 15.2719 9.12966C15.451 9.12966 15.6228 9.05851 15.7495 8.93185C15.8761 8.80519 15.9473 8.6334 15.9473 8.45428Z" fill="#303030"/>
<path d="M16.5399 7.91678C16.6161 7.91678 16.6778 7.85507 16.6778 7.77895C16.6778 7.70282 16.6161 7.64111 16.5399 7.64111C16.4638 7.64111 16.4021 7.70282 16.4021 7.77895C16.4021 7.85507 16.4638 7.91678 16.5399 7.91678Z" fill="#303030"/>
<path d="M16.8983 5.51847C16.8956 5.21375 16.8027 4.91666 16.6315 4.66461C16.4602 4.41257 16.2182 4.21685 15.9359 4.10212C15.6535 3.98739 15.3436 3.95878 15.0451 4.01989C14.7465 4.081 14.4727 4.2291 14.2582 4.44554C14.0437 4.66197 13.898 4.93705 13.8396 5.23612C13.7811 5.5352 13.8125 5.84488 13.9297 6.12616C14.047 6.40744 14.2448 6.64772 14.4984 6.81675C14.7519 6.98578 15.0499 7.07598 15.3546 7.07599C15.5585 7.076 15.7603 7.03561 15.9485 6.95717C16.1367 6.87873 16.3075 6.76379 16.4511 6.61898C16.5946 6.47417 16.708 6.30236 16.7848 6.11347C16.8616 5.92458 16.9001 5.72236 16.8983 5.51847Z" fill="#303030"/>
<path d="M22.2187 0.459961H10.8612C10.2398 0.459961 9.64379 0.706829 9.20436 1.14626C8.76493 1.58569 8.51807 2.18168 8.51807 2.80312V31.1968C8.51807 31.8182 8.76493 32.4142 9.20436 32.8536C9.64379 33.2931 10.2398 33.5399 10.8612 33.5399H22.2187C22.8401 33.5399 23.4361 33.2931 23.8755 32.8536C24.315 32.4142 24.5618 31.8182 24.5618 31.1968V2.80312C24.5618 2.18168 24.315 1.58569 23.8755 1.14626C23.4361 0.706829 22.8401 0.459961 22.2187 0.459961V0.459961ZM17.3532 14.4638C17.3596 14.491 17.3596 14.5193 17.3532 14.5465C17.3731 14.6559 17.3731 14.7679 17.3532 14.8773C17.2719 15.0826 17.127 15.2565 16.9397 15.3735C16.8773 15.4152 16.8069 15.4434 16.7329 15.4562H16.54V15.3873C16.5333 15.2955 16.5333 15.2034 16.54 15.1116C16.5822 14.9857 16.6476 14.8688 16.7329 14.767C16.7988 14.6802 16.8837 14.6094 16.981 14.5603C17.0868 14.5113 17.1978 14.4743 17.3118 14.45L17.3532 14.4638ZM9.41398 7.57215V3.43716C9.40848 3.164 9.45754 2.89249 9.55828 2.63853C9.65902 2.38457 9.80943 2.15326 10.0007 1.95816C10.1919 1.76305 10.4202 1.60807 10.6721 1.50228C10.924 1.3965 11.1945 1.34204 11.4677 1.34209H15.2857C15.8304 1.34209 16.3527 1.55847 16.7379 1.94361C17.123 2.32876 17.3394 2.85113 17.3394 3.39581V7.59972C17.3394 8.14567 17.1235 8.66947 16.7387 9.05681C16.354 9.44415 15.8316 9.66358 15.2857 9.66722H11.4677C10.9218 9.66358 10.3994 9.44415 10.0147 9.05681C9.6299 8.66947 9.41397 8.14567 9.41398 7.59972V7.57215ZM18.2629 17.5788C18.1928 17.7771 18.1003 17.9667 17.9872 18.144C17.9157 18.2537 17.8325 18.3553 17.7391 18.4472C17.6752 18.5141 17.6007 18.57 17.5186 18.6126C17.4325 18.6331 17.3428 18.6331 17.2567 18.6126C17.1521 18.5998 17.05 18.572 16.9535 18.5299L16.7054 18.461C16.6054 18.4398 16.5021 18.4398 16.4021 18.461L16.1954 18.5437H15.9886C15.894 18.5701 15.7938 18.5701 15.6992 18.5437C15.6266 18.5106 15.5611 18.4638 15.5062 18.4058C15.3993 18.2987 15.3067 18.1783 15.2305 18.0475C15.1057 17.8415 14.9996 17.6246 14.9135 17.3997C14.9135 17.2618 14.8446 17.1378 14.817 16.9999C14.8099 16.8714 14.8099 16.7426 14.817 16.614C14.8212 16.4354 14.8537 16.2586 14.9135 16.0902C14.9752 15.9231 15.0742 15.7723 15.203 15.6492C15.3194 15.5336 15.4686 15.4566 15.6303 15.4286C15.707 15.4082 15.7878 15.4082 15.8646 15.4286C16.0043 15.4382 16.1428 15.4613 16.2781 15.4976L16.54 15.6216C16.5989 15.6352 16.6602 15.6352 16.7191 15.6216L17.0224 15.5389C17.1046 15.526 17.1883 15.526 17.2705 15.5389H17.5186C17.6567 15.5314 17.7945 15.5599 17.9183 15.6216C18.0086 15.6753 18.0881 15.7454 18.1526 15.8284L18.0699 15.8973C17.9761 15.9837 17.8929 16.0808 17.8218 16.1867C17.7666 16.29 17.7293 16.4018 17.7115 16.5175C17.6829 16.7679 17.7521 17.0198 17.9045 17.2205C17.9673 17.3039 18.0416 17.3782 18.125 17.441L18.2767 17.5099L18.2629 17.5788Z" fill="#303030"/>
</g>
<defs>
<clipPath id="clip0_12_221">
<rect width="33.08" height="33.08" fill="white" transform="translate(0 0.459961)"/>
</clipPath>
</defs>
</svg>
