<svg width="25" height="25" viewBox="0 0 25 25" fill="none" xmlns="http://www.w3.org/2000/svg">
<path d="M18.0591 0.416992C22.2111 0.416992 24.5803 2.7617 24.5803 6.926V18.332C24.5803 22.4719 22.2234 24.841 18.0713 24.841H6.66525C2.50096 24.841 0.15625 22.4719 0.15625 18.332V6.926C0.15625 2.7617 2.50096 0.416992 6.66525 0.416992H18.0591ZM12.3561 7.14581C11.7943 7.14581 11.3425 7.59766 11.3425 8.15941V11.6032H7.88646C7.61779 11.6032 7.36134 11.7131 7.16595 11.8963C6.98277 12.0917 6.87286 12.3469 6.87286 12.6168C6.87286 13.1785 7.3247 13.6304 7.88646 13.6426H11.3425V17.0986C11.3425 17.6604 11.7943 18.1122 12.3561 18.1122C12.9178 18.1122 13.3696 17.6604 13.3696 17.0986V13.6426H16.8379C17.3996 13.6304 17.8515 13.1785 17.8515 12.6168C17.8515 12.055 17.3996 11.6032 16.8379 11.6032H13.3696V8.15941C13.3696 7.59766 12.9178 7.14581 12.3561 7.14581Z" fill="#FF510C"/>
</svg>
