<svg width="19" height="19" viewBox="0 0 19 19" fill="none" xmlns="http://www.w3.org/2000/svg">
<path d="M18.584 15.8242C18.9004 16.1758 18.9004 16.7031 18.5488 17.0195L17.5645 18.0039C17.248 18.3555 16.7207 18.3555 16.3691 18.0039L12.8887 14.5234C12.7129 14.3477 12.6426 14.1367 12.6426 13.9258V13.3281C11.377 14.3125 9.83008 14.875 8.14258 14.875C4.09961 14.875 0.830078 11.6055 0.830078 7.5625C0.830078 3.55469 4.09961 0.25 8.14258 0.25C12.1504 0.25 15.4551 3.55469 15.4551 7.5625C15.4551 9.28516 14.8574 10.832 13.9082 12.0625H14.4707C14.6816 12.0625 14.8926 12.168 15.0684 12.3086L18.584 15.8242ZM8.14258 12.0625C10.6035 12.0625 12.6426 10.0586 12.6426 7.5625C12.6426 5.10156 10.6035 3.0625 8.14258 3.0625C5.64648 3.0625 3.64258 5.10156 3.64258 7.5625C3.64258 10.0586 5.64648 12.0625 8.14258 12.0625Z" fill="black"/>
</svg>
