<svg width="28" height="28" viewBox="0 0 28 28" fill="none" xmlns="http://www.w3.org/2000/svg">
<path d="M18.2423 14.1326C17.7591 14.1326 17.3673 14.5243 17.3673 15.0076C17.3673 15.4908 17.7591 15.8826 18.2423 15.8826H21.4241C21.9074 15.8826 22.2991 15.4908 22.2991 15.0076C22.2991 14.5243 21.9074 14.1326 21.4241 14.1326H18.2423Z" fill="#FF510C"/>
<path fill-rule="evenodd" clip-rule="evenodd" d="M22.922 3.94038C23.0123 4.45833 23.0341 5.07386 23.0402 5.77808C23.1414 5.83087 23.2407 5.88706 23.3383 5.94687C24.241 6.50001 24.9999 7.25893 25.553 8.16157C26.1621 9.1554 26.3835 10.3072 26.475 11.7712C26.5416 12.8362 26.5416 14.1316 26.5416 15.7226V15.7556C26.5416 16.6679 26.5416 17.4806 26.5296 18.2039C26.4922 20.4531 26.3466 22.0435 25.553 23.3384C24.9999 24.2411 24.241 25 23.3383 25.5531C22.4764 26.0813 21.4986 26.3167 20.3045 26.4303C19.1329 26.5417 17.6665 26.5417 15.7959 26.5417H12.204C10.3334 26.5417 8.8669 26.5417 7.69537 26.4303C6.50122 26.3167 5.52344 26.0813 4.66148 25.5531C3.75884 25 2.99992 24.2411 2.44678 23.3384C1.91857 22.4765 1.68316 21.4987 1.56962 20.3045C1.45823 19.133 1.45823 17.6665 1.45824 15.7959L1.45833 15.1826C1.44296 14.606 1.44768 13.9615 1.45277 13.2666C1.45546 12.9003 1.45824 12.52 1.45824 12.1282L1.45824 12.0776C1.45823 10.08 1.45822 8.51225 1.58753 7.26796C1.71942 5.99886 1.99368 4.96372 2.61222 4.07616C2.98593 3.53992 3.43931 3.06684 3.95651 2.67509C4.81788 2.02265 5.82585 1.73261 7.05507 1.59377C8.25432 1.45831 9.763 1.45832 11.6741 1.45833L18.0535 1.45833C18.9852 1.45829 19.7748 1.45826 20.4044 1.54649C21.0768 1.64074 21.6939 1.85041 22.1876 2.36516C22.6162 2.81196 22.8192 3.35099 22.922 3.94038ZM17.992 3.20833C19.002 3.20833 19.6677 3.21035 20.1615 3.27955C20.6261 3.34469 20.8069 3.45379 20.9247 3.57656C21.0336 3.69011 21.1318 3.86153 21.198 4.2409C21.2422 4.49456 21.2663 4.8046 21.2791 5.20122C20.7975 5.11308 20.2779 5.05877 19.7118 5.02384C18.6501 4.95833 17.3599 4.95833 15.7769 4.95833H12.204C10.3334 4.95833 8.86692 4.95832 7.69537 5.06971C6.50122 5.18325 5.52344 5.41866 4.66148 5.94687C4.19682 6.23162 3.77024 6.57089 3.39022 6.95623C3.51827 6.10768 3.72798 5.53589 4.04797 5.07673C4.31814 4.68905 4.64412 4.34961 5.01315 4.07009C5.52383 3.68327 6.18049 3.45368 7.25148 3.33271C8.3411 3.20964 9.75098 3.20833 11.7285 3.20833H17.992ZM5.57585 7.43899C6.11663 7.1076 6.79497 6.91321 7.86101 6.81185C8.94008 6.70926 10.3235 6.70833 12.2499 6.70833H15.7499C17.3653 6.70833 18.6023 6.70871 19.604 6.77052C20.6047 6.83227 21.3044 6.95265 21.8559 7.16211C22.0625 7.24056 22.2494 7.33203 22.424 7.43899C23.0911 7.84784 23.6521 8.40877 24.0609 9.07594C24.3486 9.54546 24.532 10.1162 24.6418 10.9508H18.2423C16.0018 10.9508 14.1855 12.7671 14.1855 15.0076C14.1855 17.2481 16.0018 19.0644 18.2423 19.0644H24.7558C24.6884 20.7681 24.5025 21.7035 24.0609 22.4241C23.6521 23.0912 23.0911 23.6522 22.424 24.061C21.8832 24.3924 21.2048 24.5868 20.1388 24.6881C19.0597 24.7907 17.6764 24.7917 15.7499 24.7917H12.2499C10.3235 24.7917 8.94008 24.7907 7.86101 24.6881C6.79497 24.5868 6.11663 24.3924 5.57585 24.061C4.90868 23.6522 4.34774 23.0912 3.9389 22.4241C3.60751 21.8833 3.41312 21.2049 3.31176 20.1389C3.20916 19.0598 3.20824 17.6764 3.20824 15.75C3.20824 13.8236 3.20916 12.4402 3.31176 11.3611C3.41312 10.2951 3.60751 9.61672 3.9389 9.07594C4.34774 8.40877 4.90868 7.84784 5.57585 7.43899ZM15.9355 15.0076C15.9355 13.7336 16.9683 12.7008 18.2423 12.7008H24.7654C24.7914 13.5454 24.7916 14.5418 24.7916 15.75C24.7916 16.3146 24.7916 16.8338 24.7888 17.3144H18.2423C16.9683 17.3144 15.9355 16.2816 15.9355 15.0076Z" fill="#FF510C"/>
</svg>
