<svg width="21" height="20" viewBox="0 0 21 20" fill="none" xmlns="http://www.w3.org/2000/svg">
<path d="M17.55 2.91006C16.6332 1.98399 15.5412 1.24973 14.3377 0.750111C13.1341 0.250494 11.8432 -0.00448012 10.54 5.95696e-05C5.08005 5.95696e-05 0.630049 4.45006 0.630049 9.91006C0.630049 11.6601 1.09005 13.3601 1.95005 14.8601L0.550049 20.0001L5.80005 18.6201C7.25005 19.4101 8.88005 19.8301 10.54 19.8301C16 19.8301 20.4501 15.3801 20.4501 9.92006C20.4501 7.27006 19.42 4.78006 17.55 2.91006ZM10.54 18.1501C9.06005 18.1501 7.61005 17.7501 6.34005 17.0001L6.04005 16.8201L2.92005 17.6401L3.75005 14.6001L3.55005 14.2901C2.7278 12.977 2.29119 11.4593 2.29005 9.91006C2.29005 5.37006 5.99005 1.67006 10.53 1.67006C12.73 1.67006 14.8 2.53006 16.35 4.09006C17.1175 4.85402 17.7257 5.76272 18.1394 6.76348C18.5531 7.76425 18.7641 8.83717 18.76 9.92006C18.7801 14.4601 15.08 18.1501 10.54 18.1501ZM15.06 11.9901C14.81 11.8701 13.59 11.2701 13.37 11.1801C13.14 11.1001 12.98 11.0601 12.81 11.3001C12.64 11.5501 12.17 12.1101 12.03 12.2701C11.89 12.4401 11.74 12.4601 11.49 12.3301C11.24 12.2101 10.44 11.9401 9.50005 11.1001C8.76005 10.4401 8.27005 9.63006 8.12005 9.38006C7.98005 9.13006 8.10005 9.00006 8.23005 8.87006C8.34005 8.76006 8.48005 8.58006 8.60005 8.44006C8.72005 8.30006 8.77005 8.19006 8.85005 8.03006C8.93005 7.86006 8.89005 7.72006 8.83005 7.60006C8.77005 7.48006 8.27005 6.26006 8.07005 5.76006C7.87005 5.28006 7.66005 5.34006 7.51005 5.33006H7.03005C6.86005 5.33006 6.60005 5.39006 6.37005 5.64006C6.15005 5.89006 5.51005 6.49006 5.51005 7.71006C5.51005 8.93006 6.40005 10.1101 6.52005 10.2701C6.64005 10.4401 8.27005 12.9401 10.75 14.0101C11.34 14.2701 11.8 14.4201 12.16 14.5301C12.75 14.7201 13.29 14.6901 13.72 14.6301C14.2 14.5601 15.19 14.0301 15.39 13.4501C15.6 12.8701 15.6 12.3801 15.53 12.2701C15.46 12.1601 15.31 12.1101 15.06 11.9901Z" fill="black"/>
</svg>
