<svg width="32" height="33" viewBox="0 0 32 33" fill="none" xmlns="http://www.w3.org/2000/svg">
<g clip-path="url(#clip0_12_255)">
<path d="M25.56 0.5H6.44C4.73201 0.5 3.09397 1.1785 1.88623 2.38623C0.678498 3.59397 0 5.23201 0 6.94L0 26.06C0 27.768 0.678498 29.406 1.88623 30.6138C3.09397 31.8215 4.73201 32.5 6.44 32.5H25.56C27.268 32.5 28.906 31.8215 30.1138 30.6138C31.3215 29.406 32 27.768 32 26.06V6.94C32 5.23201 31.3215 3.59397 30.1138 2.38623C28.906 1.1785 27.268 0.5 25.56 0.5V0.5ZM8.94667 26.0467C8.73616 26.3453 8.42178 26.5546 8.06506 26.6336C7.70835 26.7126 7.33499 26.6556 7.01807 26.4738C6.70116 26.292 6.46352 25.9985 6.35166 25.6506C6.23981 25.3028 6.2618 24.9258 6.41333 24.5933L7.44 22.82C7.94619 22.6311 8.49932 22.6081 9.01944 22.7543C9.53956 22.9006 9.9997 23.2084 10.3333 23.6333L8.94667 26.0467ZM19.0667 22.1267H5.81333C5.45019 22.0919 5.11303 21.9231 4.86766 21.6531C4.6223 21.3832 4.48635 21.0315 4.48635 20.6667C4.48635 20.3019 4.6223 19.9502 4.86766 19.6802C5.11303 19.4102 5.45019 19.2414 5.81333 19.2067H9.52L14.2667 10.98L12.7867 8.40667C12.6898 8.2409 12.6271 8.05745 12.6022 7.86709C12.5773 7.67673 12.5907 7.48331 12.6416 7.29821C12.6926 7.11311 12.78 6.94006 12.8988 6.78924C13.0176 6.63842 13.1653 6.51288 13.3333 6.42C13.6703 6.22985 14.0683 6.1792 14.4421 6.27888C14.8159 6.37857 15.1358 6.62067 15.3333 6.95333L15.96 8.06L16.6 6.95333C16.7975 6.62067 17.1174 6.37857 17.4913 6.27888C17.8651 6.1792 18.2631 6.22985 18.6 6.42C18.7656 6.51531 18.9107 6.64234 19.0272 6.79381C19.1436 6.94528 19.2291 7.11823 19.2786 7.30275C19.3281 7.48727 19.3408 7.67975 19.3159 7.86917C19.2909 8.05859 19.2289 8.24124 19.1333 8.40667L12.8933 19.1667H17.4667C17.9655 19.2097 18.4303 19.4371 18.7705 19.8045C19.1108 20.1718 19.3019 20.6527 19.3067 21.1533C19.3112 21.493 19.2286 21.8281 19.0667 22.1267ZM26.1733 22.1267H24.0667L25.4933 24.5933C25.5889 24.7588 25.6509 24.9414 25.6759 25.1308C25.7008 25.3203 25.6881 25.5127 25.6386 25.6973C25.5891 25.8818 25.5036 26.0547 25.3872 26.2062C25.2707 26.3577 25.1256 26.4847 24.96 26.58C24.7061 26.7287 24.4137 26.7983 24.12 26.78C23.8798 26.7615 23.6476 26.6851 23.4433 26.5574C23.239 26.4297 23.0686 26.2545 22.9467 26.0467L17.3333 16.3C17.0949 15.7768 16.9722 15.2083 16.9733 14.6333C16.9744 13.5712 17.3741 12.5482 18.0933 11.7667L22.3867 19.1667H26.1733C26.3768 19.1472 26.5821 19.1705 26.776 19.235C26.9699 19.2995 27.1482 19.4038 27.2995 19.5413C27.4507 19.6788 27.5716 19.8463 27.6543 20.0332C27.737 20.2202 27.7797 20.4223 27.7797 20.6267C27.7797 20.8311 27.737 21.0332 27.6543 21.2201C27.5716 21.407 27.4507 21.5746 27.2995 21.712C27.1482 21.8495 26.9699 21.9538 26.776 22.0183C26.5821 22.0829 26.3768 22.1061 26.1733 22.0867V22.1267Z" fill="#FF510B"/>
</g>
<defs>
<clipPath id="clip0_12_255">
<rect width="32" height="32" fill="white" transform="translate(0 0.5)"/>
</clipPath>
</defs>
</svg>
