<svg width="14" height="17" viewBox="0 0 14 17" fill="none" xmlns="http://www.w3.org/2000/svg">
<path d="M10.4011 4.03642C8.98559 3.93232 7.78474 4.82246 7.11471 4.82246C6.43496 4.82246 5.38694 4.05886 4.27566 4.07974C2.81648 4.10099 1.47164 4.92387 0.719231 6.22274C-0.796325 8.83808 0.332358 12.7135 1.80857 14.8357C2.53069 15.8728 3.39193 17.0413 4.52316 16.9988C5.61201 16.9562 6.02397 16.2986 7.34015 16.2986C8.65552 16.2986 9.02663 16.9988 10.178 16.9778C11.35 16.9562 12.0926 15.9193 12.8094 14.8766C13.6389 13.6729 13.9798 12.5075 14 12.4459C13.9741 12.4361 11.7154 11.5746 11.6929 8.9875C11.6725 6.82456 13.4687 5.78488 13.5503 5.73483C12.5307 4.24191 10.9559 4.0773 10.4011 4.03642Z" fill="white"/>
<path d="M9.52757 2.81162C10.1287 2.08929 10.5332 1.08333 10.4218 0.0827637C9.5566 0.116879 8.51015 0.655752 7.88955 1.37762C7.33381 2.01708 6.84573 3.04126 6.97825 4.0214C7.94264 4.09548 8.92691 3.5344 9.52757 2.81162Z" fill="white"/>
</svg>
