<svg width="278" height="62" viewBox="0 0 278 62" fill="none" xmlns="http://www.w3.org/2000/svg">
<path d="M35.5532 11.1839C36.7799 9.70055 37.6499 7.68023 37.6499 5.63444C37.6519 5.36793 37.6264 5.1034 37.5735 4.84277C35.5787 4.9192 33.1743 6.17136 31.7438 7.86051C30.619 9.13815 29.5706 11.1839 29.5706 13.2317C29.5725 13.4727 29.598 13.7118 29.647 13.9469C29.8234 13.9803 30.0036 13.9979 30.1839 13.9979C31.973 13.9979 34.2226 12.7967 35.5532 11.1839ZM36.9582 14.4329C33.9659 14.4329 31.536 16.2475 29.9762 16.2475C28.3145 16.2475 26.1413 14.5348 23.5311 14.5348C18.5969 14.5348 13.5843 18.6264 13.5843 26.3236C13.5843 31.1304 15.4263 36.194 17.7269 39.4684C19.6962 42.2295 21.4089 44.5065 23.8898 44.5065C26.3451 44.5065 27.419 42.8702 30.4622 42.8702C33.5564 42.8702 34.2461 44.4555 36.9582 44.4555C39.6428 44.4555 41.4339 42.0002 43.1211 39.5703C45.014 36.7838 45.8057 34.0718 45.8312 33.9444C45.6783 33.8934 40.5384 31.7967 40.5384 25.916C40.5384 20.827 44.579 18.5519 44.8083 18.3736C42.1491 14.5348 38.083 14.4329 36.9582 14.4329ZM62.4445 44.2243H68.7603L81.9051 7.32555H75.7422L65.6661 37.8576H65.5387L55.4645 7.32555H49.3016L62.4445 44.2243Z" fill="black"/>
<path d="M87.6582 13.1787C89.4728 13.1787 90.8798 11.7462 90.8798 10.0081C90.8798 8.24446 89.4728 6.81201 87.6582 6.81201C85.8672 6.81201 84.4367 8.24446 84.4367 10.0081C84.4367 11.7482 85.8691 13.1787 87.6582 13.1787ZM84.8972 44.2222H90.4212V17.3212H84.8972V44.2222Z" fill="black"/>
<path d="M105.185 44.7611C111.526 44.7611 116.129 41.3848 116.129 36.4761V36.4506C116.129 32.5883 114.032 30.4151 108.534 29.1375L104.162 28.1401C101.271 27.4503 100.172 26.3255 100.172 24.6618V24.6363C100.172 22.4886 102.038 21.0817 105.006 21.0817C108.126 21.0817 109.968 22.7179 110.299 25.0714L110.325 25.2497H115.516L115.49 24.944C115.208 20.3664 111.373 16.8118 105.006 16.8118C98.8179 16.8118 94.6244 20.1097 94.6244 24.9185V24.944C94.6244 28.8573 97.1562 31.3106 102.271 32.4864L106.67 33.4838C109.56 34.1736 110.532 35.171 110.532 36.9111V36.9366C110.532 39.1097 108.537 40.4912 105.214 40.4912C101.812 40.4912 99.9721 39.0333 99.4607 36.5525L99.4097 36.2978H93.9366L93.9621 36.529C94.5206 41.4358 98.4593 44.7611 105.185 44.7611Z" fill="black"/>
<path d="M123.016 13.1784C124.831 13.1784 126.238 11.746 126.238 10.0078C126.238 8.24421 124.831 6.81177 123.016 6.81177C121.225 6.81177 119.795 8.24421 119.795 10.0078C119.793 11.7479 121.225 13.1784 123.016 13.1784ZM120.253 44.222H125.777V17.321H120.253V44.222Z" fill="black"/>
<path d="M142.413 44.7609C150.11 44.7609 155.174 39.4426 155.174 30.7734V30.7225C155.174 22.1062 150.06 16.8115 142.388 16.8115C134.741 16.8115 129.652 22.1298 129.652 30.7225V30.7734C129.654 39.4151 134.693 44.7609 142.413 44.7609ZM142.439 40.1323C138.118 40.1323 135.304 36.7305 135.304 30.7734V30.7225C135.304 24.8418 138.141 21.44 142.388 21.44C146.709 21.44 149.523 24.8418 149.523 30.7225V30.7734C149.523 36.7051 146.762 40.1323 142.439 40.1323ZM158.447 44.2239H163.971V28.5493C163.971 24.3558 166.477 21.5438 170.363 21.5438C174.198 21.5438 176.091 23.8189 176.091 27.8596V44.2259H181.64V26.8112C181.64 20.6229 178.238 16.8134 172.332 16.8134C168.266 16.8134 165.505 18.6554 164.098 21.391H163.971V17.3249H158.447V44.2239ZM194.94 44.2239H200.668V31.6161H208.673C215.909 31.6161 220.922 26.6799 220.922 19.4706V19.4197C220.922 12.183 215.909 7.3252 208.673 7.3252H194.94V44.2239ZM207.24 12.1575C212.227 12.1575 215.09 14.8421 215.09 19.4451V19.4961C215.09 24.1246 212.225 26.8092 207.24 26.8092H200.668V12.1555L207.24 12.1575ZM224.261 44.2239H229.785V28.1907C229.785 24.1756 231.984 21.8495 235.538 21.8495C236.612 21.8495 237.584 21.9769 238.019 22.1552V17.0153C237.584 16.9389 236.894 16.8115 236.101 16.8115C233.032 16.8115 230.783 18.7809 229.913 21.926H229.785V17.3229H224.261V44.2239ZM251.652 44.7609C259.349 44.7609 264.413 39.4426 264.413 30.7734V30.7225C264.413 22.1062 259.298 16.8115 251.627 16.8115C243.98 16.8115 238.891 22.1298 238.891 30.7225V30.7734C238.891 39.4151 243.929 44.7609 251.652 44.7609ZM251.676 40.1323C247.355 40.1323 244.541 36.7305 244.541 30.7734V30.7225C244.541 24.8418 247.378 21.44 251.625 21.44C255.946 21.44 258.76 24.8418 258.76 30.7225V30.7734C258.76 36.7051 255.998 40.1323 251.676 40.1323Z" fill="black"/>
</svg>
