<svg width="15" height="12" viewBox="0 0 15 12" fill="none" xmlns="http://www.w3.org/2000/svg">
<path d="M14.6667 6.16857C14.6667 6.48498 14.4316 6.74648 14.1265 6.78787L14.0417 6.79357L3.05502 6.79307L7.02418 10.746C7.26878 10.9896 7.26963 11.3853 7.02608 11.6299C6.80467 11.8523 6.45749 11.8732 6.21243 11.6922L6.1422 11.6318L1.10053 6.6118C1.06829 6.57969 1.04028 6.54495 1.01652 6.50826C1.0098 6.49721 1.00297 6.48591 0.99649 6.47439C0.990532 6.46451 0.985147 6.45425 0.980067 6.44388C0.973011 6.42879 0.966118 6.41319 0.959859 6.39729C0.954773 6.38502 0.950526 6.37309 0.946653 6.36106C0.942049 6.34615 0.937574 6.33026 0.933726 6.31413C0.930865 6.30287 0.928599 6.29203 0.926623 6.28114C0.923843 6.26495 0.921478 6.24819 0.91979 6.23124C0.918332 6.21831 0.917455 6.20549 0.91697 6.19267C0.916845 6.18489 0.916687 6.17675 0.916687 6.16857L0.917001 6.14436C0.91748 6.13209 0.918317 6.11984 0.919515 6.10761L0.916687 6.16857C0.916687 6.12913 0.920341 6.09054 0.927327 6.05313C0.928947 6.04419 0.930878 6.03502 0.933016 6.02589C0.937455 6.00707 0.942586 5.98895 0.948494 5.97119C0.951394 5.96237 0.954772 5.95294 0.958382 5.94358C0.965686 5.92477 0.973624 5.90684 0.982357 5.88938C0.986415 5.88117 0.990958 5.87257 0.995717 5.86406C1.00353 5.85018 1.01157 5.83699 1.02008 5.82413C1.02608 5.81503 1.03273 5.80556 1.03967 5.79624L1.04508 5.78903C1.06192 5.76703 1.08019 5.74619 1.09974 5.72663L1.1005 5.72605L6.14216 0.705216C6.38674 0.461644 6.78247 0.462463 7.02604 0.707046C7.24747 0.929393 7.26692 1.27665 7.08487 1.52095L7.02421 1.59093L3.05669 5.54307L14.0417 5.54357C14.3869 5.54357 14.6667 5.82339 14.6667 6.16857Z" fill="#FF510C"/>
</svg>
