<svg width="14" height="15" viewBox="0 0 14 15" fill="none" xmlns="http://www.w3.org/2000/svg">
<path d="M5.88824 1.29492L0.993725 6.72954C0.625823 7.13844 0.625823 7.86199 0.993725 8.27235L5.88824 13.707C6.27044 14.1304 6.88795 14.1289 7.26755 13.7026C7.64715 13.2763 7.64715 12.589 7.26495 12.1642L4.04484 8.587L12.3064 8.587C12.8459 8.587 13.2814 8.09979 13.2814 7.49949C13.2814 6.89919 12.8459 6.41199 12.3064 6.41199L4.04484 6.41199L7.26495 2.83627C7.45605 2.62312 7.55095 2.34472 7.55095 2.06487C7.55095 1.78792 7.45605 1.50952 7.26755 1.29782C6.88795 0.872967 6.27044 0.871517 5.88824 1.29492Z" fill="white"/>
</svg>
