<svg width="34" height="34" viewBox="0 0 34 34" fill="none" xmlns="http://www.w3.org/2000/svg">
<g clip-path="url(#clip0_12_217)">
<path d="M29.955 5.83406C28.9464 4.59287 27.6727 3.59331 26.2273 2.90878C24.7819 2.22425 23.2016 1.87212 21.6023 1.87825H12.4777C10.8784 1.87212 9.2981 2.22425 7.85271 2.90878C6.40732 3.59331 5.13359 4.59287 4.12504 5.83406C2.50573 7.85893 1.38513 10.2361 0.853663 12.7738C0.322196 15.3115 0.394749 17.9385 1.06547 20.443C1.73619 22.9475 2.98629 25.2592 4.71488 27.1916C6.44348 29.124 8.60215 30.623 11.0167 31.5675C12.129 31.9943 13.3126 32.2049 14.5039 32.1878H19.5486C20.7398 32.2039 21.9232 31.9934 23.0357 31.5675C25.4503 30.623 27.609 29.124 29.3376 27.1916C31.0662 25.2592 32.3163 22.9475 32.987 20.443C33.6577 17.9385 33.7302 15.3115 33.1988 12.7738C32.6673 10.2361 31.5467 7.85893 29.9274 5.83406H29.955ZM17.04 6.4681C12.5053 6.4681 8.83893 5.8065 8.83893 4.99328C8.83893 4.18007 12.5191 3.53225 17.04 3.53225C21.5609 3.53225 25.31 4.19385 25.31 4.99328C25.31 5.79271 21.5747 6.4681 17.04 6.4681Z" fill="#303030"/>
<path d="M11.251 4.99338C11.251 5.24148 13.8422 5.43444 17.0538 5.43444C20.2653 5.43444 22.8565 5.24148 22.8565 4.99338C22.8565 4.74528 20.2515 4.63501 17.04 4.63501C13.8285 4.63501 11.251 4.75906 11.251 4.99338Z" fill="#303030"/>
</g>
<defs>
<clipPath id="clip0_12_217">
<rect width="33.08" height="33.08" fill="white" transform="translate(0.5 0.5)"/>
</clipPath>
</defs>
</svg>
