<svg width="33" height="33" viewBox="0 0 33 33" fill="none" xmlns="http://www.w3.org/2000/svg">
<g clip-path="url(#clip0_12_209)">
<path d="M32.23 6.79248H29.6863V26.2075H32.23C32.4319 26.2075 32.6257 26.1283 32.7697 25.9868C32.9137 25.8454 32.9964 25.6531 33 25.4512V7.57623C33.0019 7.47396 32.9833 7.37235 32.9454 7.27734C32.9075 7.18233 32.8511 7.09581 32.7794 7.02285C32.7077 6.94988 32.6222 6.89193 32.5279 6.85238C32.4336 6.81283 32.3323 6.79246 32.23 6.79248Z" fill="#303030"/>
<path d="M27.7887 5.18374H13.2137C13.0387 5.18374 12.8708 5.25327 12.7471 5.37705C12.6233 5.50082 12.5538 5.66869 12.5538 5.84374V14.465H0.72875C0.535473 14.465 0.350113 14.5418 0.213446 14.6784C0.0767788 14.8151 0 15.0005 0 15.1937L0 17.875C0 18.0683 0.0767788 18.2536 0.213446 18.3903C0.350113 18.527 0.535473 18.6037 0.72875 18.6037H12.5538V27.225C12.5538 27.4 12.6233 27.5679 12.7471 27.6917C12.8708 27.8155 13.0387 27.885 13.2137 27.885H27.7887C27.8766 27.8868 27.9639 27.8711 28.0455 27.8387C28.1272 27.8064 28.2016 27.7581 28.2644 27.6966C28.3271 27.6351 28.377 27.5618 28.411 27.4808C28.445 27.3998 28.4625 27.3128 28.4625 27.225V5.84374C28.4625 5.7559 28.445 5.66893 28.411 5.58795C28.377 5.50696 28.3271 5.43359 28.2644 5.37212C28.2016 5.31065 28.1272 5.26232 28.0455 5.22997C27.9639 5.19763 27.8766 5.18191 27.7887 5.18374ZM20.625 17.5587C20.4042 17.5615 20.1875 17.4985 20.0025 17.3778C19.8176 17.257 19.6727 17.0841 19.5863 16.8808C19.4999 16.6776 19.4758 16.4532 19.5173 16.2363C19.5587 16.0193 19.6636 15.8196 19.8188 15.6624C19.974 15.5053 20.1724 15.3979 20.3889 15.3538C20.6053 15.3096 20.8299 15.3309 21.0342 15.4148C21.2385 15.4986 21.4133 15.6414 21.5363 15.8248C21.6593 16.0083 21.725 16.2241 21.725 16.445C21.7324 16.5947 21.7095 16.7443 21.6578 16.8849C21.606 17.0255 21.5264 17.1543 21.4236 17.2634C21.3209 17.3725 21.1973 17.4598 21.06 17.52C20.9228 17.5802 20.7748 17.6121 20.625 17.6137V17.5587Z" fill="#303030"/>
</g>
<defs>
<clipPath id="clip0_12_209">
<rect width="33" height="33" fill="white"/>
</clipPath>
</defs>
</svg>
