<svg width="28" height="28" viewBox="0 0 28 28" fill="none" xmlns="http://www.w3.org/2000/svg">
<path d="M17.5 2.625C17.0168 2.625 16.625 3.01675 16.625 3.5C16.625 3.98325 17.0168 4.375 17.5 4.375H18.6667C21.4051 4.375 23.625 6.59492 23.625 9.33333V10.5C23.625 10.9832 24.0168 11.375 24.5 11.375C24.9833 11.375 25.375 10.9832 25.375 10.5V9.33333C25.375 5.62842 22.3716 2.625 18.6667 2.625H17.5Z" fill="#FF510C"/>
<path d="M9.33335 2.625C5.62844 2.625 2.62502 5.62842 2.62502 9.33333V10.5C2.62502 10.9832 3.01677 11.375 3.50002 11.375C3.98327 11.375 4.37502 10.9832 4.37502 10.5V9.33333C4.37502 6.59492 6.59494 4.375 9.33335 4.375H10.5C10.9833 4.375 11.375 3.98325 11.375 3.5C11.375 3.01675 10.9833 2.625 10.5 2.625H9.33335Z" fill="#FF510C"/>
<path d="M1.16669 15.4583C0.683438 15.4583 0.291687 15.8501 0.291687 16.3333C0.291687 16.8166 0.683438 17.2083 1.16669 17.2083H2.67481C2.64257 17.2996 2.62502 17.3977 2.62502 17.5V18.6667C2.62502 22.3716 5.62844 25.375 9.33335 25.375H10.5C10.9833 25.375 11.375 24.9832 11.375 24.5C11.375 24.0168 10.9833 23.625 10.5 23.625H9.33335C6.59494 23.625 4.37502 21.4051 4.37502 18.6667V17.5C4.37502 17.3977 4.35748 17.2996 4.32523 17.2083H23.6748C23.6426 17.2996 23.625 17.3977 23.625 17.5V18.6667C23.625 21.4051 21.4051 23.625 18.6667 23.625H17.5C17.0168 23.625 16.625 24.0168 16.625 24.5C16.625 24.9832 17.0168 25.375 17.5 25.375H18.6667C22.3716 25.375 25.375 22.3716 25.375 18.6667V17.5C25.375 17.3977 25.3575 17.2996 25.3252 17.2083H26.8334C27.3166 17.2083 27.7084 16.8166 27.7084 16.3333C27.7084 15.8501 27.3166 15.4583 26.8334 15.4583H1.16669Z" fill="#FF510C"/>
</svg>
