<svg width="28" height="28" viewBox="0 0 28 28" fill="none" xmlns="http://www.w3.org/2000/svg">
<path fill-rule="evenodd" clip-rule="evenodd" d="M26.2137 8.59168C26.9267 4.87399 23.6628 1.6101 19.9451 2.32309L9.27119 4.37018C6.95087 4.81518 5.09524 6.57153 4.50569 8.85373C3.32863 13.4102 7.55434 17.5746 12.0916 16.2403C12.2169 16.2034 12.3333 16.3198 12.2965 16.4451C10.9622 20.9824 15.1265 25.2082 19.6831 24.0311C21.9653 23.4416 23.7216 21.5859 24.1666 19.2656L26.2137 8.59168ZM20.2747 4.04177C22.7776 3.56175 24.975 5.75915 24.495 8.26207L22.4479 18.936C22.1314 20.5867 20.878 21.915 19.2454 22.3367C15.9821 23.1797 13.0311 20.15 13.9754 16.9389C14.403 15.4848 13.052 14.1338 11.5979 14.5614C8.38675 15.5057 5.35708 12.5547 6.20007 9.29143C6.62183 7.65876 7.9501 6.40543 9.6008 6.08885L20.2747 4.04177Z" fill="#FF510C"/>
<path d="M5.76863 19.0559C6.11034 18.7141 6.11034 18.1601 5.76863 17.8184C5.42693 17.4767 4.87291 17.4767 4.5312 17.8184L2.88128 19.4683C2.53957 19.81 2.53957 20.3641 2.88128 20.7058C3.22299 21.0475 3.77701 21.0475 4.11872 20.7058L5.76863 19.0559Z" fill="#FF510C"/>
<path d="M9.89342 19.8808C10.2351 19.5391 10.2351 18.9851 9.89342 18.6434C9.55171 18.3017 8.9977 18.3017 8.65599 18.6434L7.00607 20.2933C6.66436 20.635 6.66436 21.189 7.00607 21.5307C7.34778 21.8724 7.9018 21.8724 8.24351 21.5307L9.89342 19.8808Z" fill="#FF510C"/>
<path d="M10.7184 24.0056C11.0601 23.6639 11.0601 23.1099 10.7184 22.7682C10.3767 22.4265 9.82265 22.4265 9.48095 22.7682L7.83103 24.4181C7.48932 24.7598 7.48932 25.3138 7.83103 25.6555C8.17274 25.9972 8.72676 25.9972 9.06847 25.6555L10.7184 24.0056Z" fill="#FF510C"/>
</svg>
