<svg width="19" height="17" viewBox="0 0 19 17" fill="none" xmlns="http://www.w3.org/2000/svg">
<path d="M18.8101 2.92451C18.7581 2.79888 18.67 2.69149 18.5569 2.61592C18.4439 2.54036 18.311 2.50001 18.175 2.49998H15.5599C15.1943 1.87795 14.6739 1.3611 14.0494 0.999688C13.425 0.638276 12.7176 0.444597 11.9961 0.437481C11.4586 0.43043 10.925 0.530958 10.4269 0.733149C9.92885 0.935341 9.47622 1.23511 9.09569 1.61482C8.70405 1.99916 8.3932 2.45791 8.18142 2.96412C7.96964 3.47032 7.8612 4.01376 7.86249 4.56248V5.08584C4.40264 4.17318 1.57272 1.35873 1.54264 1.32865C1.45041 1.2356 1.3335 1.17084 1.2057 1.142C1.07789 1.11316 0.944506 1.12144 0.821248 1.16587C0.697991 1.2103 0.589994 1.28902 0.509978 1.39277C0.429961 1.49651 0.381255 1.62097 0.369597 1.75146C-0.000793874 5.85842 1.19202 8.6067 2.26022 10.1888C2.78107 10.9709 3.41469 11.6717 4.14053 12.2685C2.83171 13.775 0.770925 14.5665 0.748581 14.5751C0.65157 14.6114 0.564023 14.6692 0.492484 14.7441C0.420944 14.819 0.367261 14.9091 0.335446 15.0077C0.303631 15.1063 0.294506 15.2108 0.308753 15.3134C0.323 15.416 0.36025 15.5141 0.417722 15.6003C0.482175 15.6965 0.739987 16.0343 1.36991 16.3497C2.1485 16.7398 3.17717 16.9375 4.42499 16.9375C10.4982 16.9375 15.5728 12.2608 16.091 6.24342L18.6614 3.67389C18.7575 3.57769 18.8229 3.45514 18.8494 3.32175C18.8759 3.18836 18.8622 3.05012 18.8101 2.92451ZM14.9429 5.45193C14.825 5.57009 14.7541 5.72709 14.7435 5.89365C14.3937 11.3154 9.86311 15.5625 4.42499 15.5625C3.51749 15.5625 2.87811 15.4422 2.42952 15.2978C3.41866 14.7607 4.79796 13.8369 5.68483 12.5065C5.73688 12.4283 5.77235 12.3403 5.78904 12.2478C5.80573 12.1553 5.80329 12.0604 5.78186 11.9689C5.76044 11.8774 5.7205 11.7913 5.66449 11.7159C5.60848 11.6404 5.53761 11.5773 5.45624 11.5303C5.41585 11.5071 1.68272 9.2667 1.67499 3.28029C3.04999 4.39748 5.56366 6.13084 8.43569 6.61381C8.53412 6.6304 8.63499 6.62537 8.73127 6.59904C8.82756 6.57272 8.91697 6.52575 8.99327 6.46139C9.06957 6.39703 9.13094 6.31682 9.17311 6.22635C9.21529 6.13587 9.23725 6.0373 9.23749 5.93748V4.56248C9.23672 4.19574 9.30931 3.83255 9.45099 3.49429C9.59267 3.15602 9.80058 2.84951 10.0625 2.59279C10.3136 2.34125 10.6125 2.1426 10.9417 2.00857C11.2708 1.87454 11.6235 1.80787 11.9789 1.81248C13.0669 1.82623 14.0835 2.48967 14.5089 3.46334C14.5625 3.58575 14.6507 3.68989 14.7625 3.76299C14.8744 3.8361 15.0052 3.87502 15.1388 3.87498H16.5138L14.9429 5.45193Z" fill="black"/>
</svg>
